<?xml version="1.0" standalone="no"?>
<!DOCTYPE svg PUBLIC "-//W3C//DTD SVG 20010904//EN"
 "http://www.w3.org/TR/2001/REC-SVG-20010904/DTD/svg10.dtd">
<svg version="1.0" xmlns="http://www.w3.org/2000/svg"
 width="789.000000pt" height="785.000000pt" viewBox="0 0 789.000000 785.000000"
 preserveAspectRatio="xMidYMid meet">

<g transform="translate(0.000000,785.000000) scale(0.100000,-0.100000)"
fill="#000000" stroke="none">
<path d="M0 3925 l0 -3925 3945 0 3945 0 0 3925 0 3925 -3945 0 -3945 0 0
-3925z m1530 3020 l0 -605 -605 0 -605 0 0 598 c0 329 3 602 7 605 3 4 276 7
605 7 l598 0 0 -605z m345 515 l0 -85 -85 0 -85 0 -3 74 c-2 41 -1 80 2 88 4
11 25 13 88 11 l83 -3 0 -85z m515 -85 l0 -175 -85 0 -85 0 0 -85 0 -85 -85 0
-85 0 0 85 0 85 85 0 85 0 0 168 c0 93 3 172 7 175 3 4 42 7 85 7 l78 0 0
-175z m520 85 l0 -90 -85 0 -85 0 0 90 0 90 85 0 85 0 0 -90z m1727 0 c1 -47
2 -124 2 -172 l1 -88 85 0 85 0 0 -170 0 -170 -85 0 -85 0 0 85 0 85 -90 0
-90 0 0 85 0 85 -85 0 -85 0 0 85 0 85 -85 0 c-47 1 -164 1 -260 1 -96 0 -251
0 -345 -1 l-170 0 0 -85 0 -85 -85 0 -85 0 0 -85 0 -85 170 0 170 0 0 85 0 85
175 0 175 0 -3 -260 -2 -260 88 0 87 0 0 90 0 90 85 0 85 0 0 -262 0 -263 85
3 85 3 0 85 0 84 90 0 90 0 0 85 0 85 85 0 86 0 -3 -82 -3 -83 -82 -3 -83 -3
0 -87 c0 -48 -1 -203 0 -344 l0 -258 -90 0 -90 0 0 -170 0 -170 -85 0 -85 0 0
85 0 85 -172 0 -173 0 0 -342 0 -343 85 -5 85 -5 3 -100 3 -100 82 -46 82 -46
5 146 5 146 83 3 82 3 0 84 0 85 175 0 175 0 0 -85 0 -85 -87 0 -88 0 3 -85 3
-85 170 0 169 0 0 -90 0 -90 85 0 84 0 3 88 3 87 85 0 85 0 2 -85 c1 -47 2
-124 2 -172 l1 -88 170 0 170 0 0 -87 0 -88 85 3 85 3 0 -85 0 -86 -170 0
-170 0 0 -84 c0 -98 2 -96 -101 -96 l-69 0 0 260 0 260 -90 0 -90 0 0 -85 0
-85 -85 0 -85 0 0 -85 0 -85 -85 0 -85 0 0 85 0 85 85 0 85 0 0 85 0 85 -85 0
-85 0 0 88 0 87 -175 0 c-168 0 -175 -1 -175 -20 0 -27 8 -35 58 -68 58 -38
94 -80 114 -135 15 -41 17 -91 18 -378 0 -443 -3 -452 -184 -557 -370 -215
-496 -286 -530 -297 -37 -12 -111 -9 -148 5 -17 7 -18 -8 -18 -219 l0 -226
-85 0 -85 0 0 -91 0 -90 -87 1 c-49 1 -125 1 -170 1 l-82 -1 -3 -83 -3 -82
-87 -3 -88 -3 0 -84 0 -85 173 -2 172 -3 3 -82 3 -82 87 -3 c48 -2 124 -2 170
0 l82 3 0 85 0 85 88 -3 87 -3 3 -82 3 -82 84 -3 85 -3 0 88 0 87 -85 0 -85 0
0 85 0 85 85 0 85 0 0 -85 0 -85 85 0 85 0 0 -175 0 -175 85 0 84 0 3 88 3 87
85 0 85 0 2 -85 c1 -47 2 -163 2 -257 l1 -173 85 0 85 0 -2 -173 -3 -172 -82
-3 -83 -3 0 176 0 175 -175 0 -175 0 0 -85 0 -85 -85 0 -85 0 0 85 0 85 85 0
85 0 0 85 0 85 -170 0 c-155 0 -170 -2 -171 -17 0 -10 0 -48 1 -86 l1 -67 -90
0 -91 0 0 -85 0 -85 -170 0 -170 0 0 258 0 257 -172 0 -173 0 0 88 0 87 -87 0
-88 0 0 255 0 255 -85 0 -85 0 0 -170 0 -170 -87 0 -88 0 0 -175 0 -175 173 0
172 0 0 -85 0 -85 -85 0 -85 0 0 -85 0 -85 -85 0 -85 0 0 84 0 85 -90 3 -90 3
0 -87 0 -88 -85 0 -85 0 0 85 0 85 -85 0 -85 0 0 -85 0 -85 -85 0 -85 0 0 85
0 84 -87 3 -88 3 -3 82 -3 83 91 0 90 0 0 -85 0 -85 85 0 85 0 0 85 0 85 85 0
84 0 3 88 3 87 85 5 85 5 0 83 0 82 -87 0 -88 0 0 85 0 85 88 0 87 0 0 82 0
83 173 3 172 2 0 90 0 90 169 -2 170 -3 3 86 c2 48 2 125 0 173 l-3 86 -84 0
-85 0 0 175 0 175 -85 0 -84 0 -3 -87 -3 -88 -82 -3 -83 -3 0 176 0 175 -260
0 -260 0 0 85 0 85 173 0 172 0 0 172 0 173 85 0 85 0 0 -173 0 -172 88 0 87
0 0 85 0 85 85 0 85 0 0 260 0 260 -170 0 -170 0 0 85 0 84 -87 3 -88 3 0 85
0 85 85 2 c47 1 163 2 258 2 l172 1 0 85 0 85 85 0 85 0 0 85 0 85 -170 0
-170 0 0 -85 0 -85 -85 0 -85 0 0 85 0 85 -90 0 -90 0 0 -170 0 -170 -85 0
-85 0 0 -90 0 -90 85 0 85 0 0 -85 0 -84 88 -3 87 -3 0 -80 0 -80 -85 0 -85 0
-3 83 -3 82 -169 0 -170 0 0 -85 0 -85 -85 0 -85 0 0 85 0 85 85 0 85 0 0 260
0 260 -175 0 -175 0 1 170 0 170 89 0 90 0 0 90 0 90 -90 0 -91 0 3 83 3 82
79 3 c57 2 82 -1 87 -10 5 -7 9 -46 9 -85 l0 -73 85 0 86 0 -3 -87 -3 -88 -82
-3 -83 -3 0 -84 0 -85 85 0 85 0 0 85 0 85 85 0 84 0 3 88 3 87 85 5 85 5 0
80 0 80 173 3 172 2 0 170 0 170 85 0 85 0 0 -170 0 -170 85 0 85 0 0 85 0 85
175 0 175 0 0 88 0 87 -85 -3 -85 -3 0 90 0 91 -90 0 -90 0 0 173 c1 94 1 209
1 254 l-1 82 -82 3 -83 3 -3 173 -2 172 85 0 85 0 0 85 0 85 90 0 90 0 0 85 0
85 85 0 85 0 0 90 0 89 603 -2 602 -2 2 -85z m343 0 l0 -90 -85 0 -85 0 0 90
0 90 85 0 85 0 0 -90z m860 0 l0 -90 -170 0 -170 0 0 -85 0 -85 85 0 85 0 0
-172 0 -173 85 3 85 3 1 82 c0 45 0 121 -1 170 l-1 87 90 0 91 0 0 -432 c0
-238 0 -470 0 -515 l0 -83 85 0 85 0 0 -90 0 -90 173 0 172 0 0 87 0 88 258 3
257 2 0 -90 0 -90 -85 0 -85 0 0 -85 0 -85 85 0 85 0 0 -85 0 -85 169 0 c139
0 170 -3 174 -15 4 -8 6 -163 6 -345 l0 -330 -89 0 -90 0 0 -430 0 -430 -85 0
-85 0 0 -175 0 -175 85 0 85 0 0 -85 0 -85 -170 0 -170 0 0 -85 0 -85 88 -1
c106 -1 246 2 249 4 1 1 3 38 5 82 l3 80 85 0 85 0 2 -427 2 -428 -174 0 -175
0 0 85 0 85 -85 0 -85 0 0 173 0 172 -85 -3 -85 -3 0 260 0 261 85 0 85 0 0
175 0 175 -87 0 -88 0 0 -172 0 -173 -85 0 -85 0 -5 85 -5 85 -83 0 -82 0 0
-87 0 -88 -85 0 -85 0 0 260 0 260 -85 0 -85 0 0 85 0 85 85 0 85 0 0 -85 0
-85 85 0 85 0 2 258 3 257 82 3 82 3 3 82 c2 45 2 121 0 170 l-3 87 -85 0 -84
0 0 -170 0 -170 -85 0 -85 0 0 85 0 85 -85 0 -85 0 0 85 0 85 -90 0 -90 0 0
-170 0 -170 -85 0 -85 0 0 -90 0 -90 -85 0 -85 0 0 90 0 90 84 0 85 0 3 85 3
85 -262 0 -263 0 0 85 0 85 -85 0 -85 0 0 260 0 260 173 -2 172 -3 3 -82 3
-82 84 -3 85 -3 0 88 0 87 -85 0 -85 0 0 85 0 85 85 0 85 0 0 88 0 87 -85 -3
-85 -3 0 175 0 176 -91 0 -90 0 1 88 c1 48 1 124 1 170 l-1 82 -85 0 -85 0 0
175 0 175 85 0 85 0 0 85 0 85 90 0 90 0 0 85 0 85 85 0 85 0 0 90 0 90 170
-1 170 0 0 -89z m1558 -517 l2 -603 -605 0 -605 0 0 605 0 605 603 -2 602 -3
3 -602z m-5350 345 l-3 -83 -82 -3 -83 -3 0 -84 0 -84 83 -3 82 -3 3 -82 3
-83 -88 0 -88 0 0 -87 0 -88 -85 0 -85 0 -3 258 -2 257 90 0 90 0 0 85 0 85
85 0 86 0 -3 -82z m692 -258 l0 -170 -172 2 -173 3 0 80 0 80 88 0 87 0 0 88
0 87 85 0 85 0 0 -170z m-350 -260 l0 -90 175 0 176 0 -3 -82 -3 -83 -85 -5
-85 -5 0 -255 0 -255 -85 -2 c-47 -1 -124 -2 -172 -2 l-88 -1 0 -170 0 -170
-85 0 -85 0 0 260 0 260 -85 0 -85 0 0 85 0 85 -90 0 -90 0 0 85 0 85 90 0 90
0 0 -85 0 -84 83 -3 82 -3 3 -82 3 -83 84 0 85 0 0 85 0 85 -85 0 -85 0 0 170
0 170 85 0 85 0 0 83 c0 46 3 87 7 90 3 4 42 7 85 7 l78 0 0 -90z m520 -345
l0 -85 -85 0 -85 0 0 85 0 85 85 0 85 0 0 -85z m2070 0 l0 -85 -85 0 -85 0 0
85 0 85 85 0 85 0 0 -85z m-3970 -345 l0 -90 90 0 90 0 0 -85 0 -85 -172 2
-173 3 -3 83 -3 82 -87 0 c-48 1 -163 2 -257 3 l-170 2 -3 74 c-2 41 -1 80 2
87 4 11 75 13 346 13 l340 0 0 -89z m520 0 l0 -90 -85 0 -85 0 0 90 0 90 85 0
85 0 0 -90z m347 -88 l3 -173 -88 3 -87 3 -3 160 c-1 87 0 165 3 173 3 9 26
12 87 10 l83 -3 2 -173z m5520 0 l3 -173 -88 3 -87 3 -3 160 c-1 87 0 165 3
173 3 9 26 12 87 10 l83 -3 2 -173z m-2417 -87 l0 -85 -85 0 -85 0 0 85 0 85
85 0 85 0 0 -85z m-4480 -170 l0 -85 85 0 85 0 0 85 0 85 85 0 85 0 0 -170 0
-170 -85 0 -84 0 -3 -87 -3 -88 -82 -3 -83 -3 0 176 0 175 -90 0 -90 0 0 85 0
85 90 0 90 0 0 -85z m1200 0 l0 -85 -170 0 -170 0 0 -85 0 -85 85 0 85 0 0
-90 0 -90 -85 0 -85 0 0 -85 0 -85 85 0 85 0 0 -85 0 -85 -85 0 -85 0 0 -85 0
-85 85 0 85 0 0 -90 0 -90 85 0 85 0 0 -85 0 -86 -82 3 -83 3 -3 83 -3 82 -84
0 -85 0 0 90 0 90 -85 0 -84 0 -3 -87 -3 -88 -173 0 -172 0 0 -172 0 -173 85
0 85 0 0 -85 0 -85 -255 0 -255 0 0 85 0 85 85 0 85 0 0 85 0 85 -173 2 -172
3 0 170 0 170 255 0 255 0 5 345 5 345 83 3 82 3 0 -91 0 -90 175 0 175 0 0
90 0 90 -85 0 -85 0 0 85 0 85 85 0 85 0 0 85 0 85 170 0 170 0 0 -85z m3108
-257 l-3 -173 -82 -3 -83 -3 0 176 0 175 85 0 85 0 -2 -172z m-518 -348 l0
-170 -85 0 -85 0 0 170 0 170 85 0 85 0 0 -170z m-3790 -85 l0 -85 -90 0 -90
0 0 85 0 85 90 0 90 0 0 -85z m5685 -345 l0 -85 -85 -5 -85 -5 0 -80 0 -80
-85 0 -85 0 -3 160 c-1 88 0 166 3 172 3 10 46 12 172 10 l168 -2 0 -85z
m-4655 -345 l0 -85 -85 0 -85 0 0 -85 0 -84 83 -3 82 -3 0 -85 0 -85 -85 -2
c-47 -1 -122 -2 -167 -2 l-82 -1 -3 -82 -3 -83 -85 0 -85 0 0 170 0 170 88 0
87 0 0 88 0 87 85 0 85 0 0 85 0 85 85 0 85 0 0 -85z m860 -170 l0 -85 -85 0
-85 0 0 85 0 85 85 0 85 0 0 -85z m-1893 -175 c1 -47 2 -124 2 -172 l1 -88 85
0 85 0 0 85 0 85 85 0 85 0 0 -85 0 -85 85 0 85 0 -2 -257 -3 -258 -340 0
-340 0 -3 420 c-1 231 0 426 3 433 3 9 27 12 87 10 l83 -3 2 -85z m1718 0 l0
-85 -168 0 -167 0 0 -82 c-1 -106 -1 -251 0 -353 l0 -80 85 0 86 0 -3 -87 -3
-88 -82 -3 -82 -3 -3 -84 -3 -85 173 0 172 0 0 -172 0 -173 85 4 85 3 0 -92 0
-91 -82 1 c-46 1 -122 1 -170 1 l-88 -1 0 -85 0 -85 -85 0 -85 0 0 -85 0 -85
85 0 85 0 0 -85 0 -85 -85 0 -85 0 0 85 0 85 -90 0 -90 0 0 -85 0 -85 -85 0
-85 0 0 -90 0 -90 -85 0 -85 0 0 90 0 90 -85 0 -85 0 0 85 0 85 -90 0 -90 0 0
-87 0 -88 88 0 87 0 0 -85 0 -85 -172 -2 -173 -3 0 90 0 90 -85 0 -85 0 0 255
0 255 85 0 84 0 3 88 3 87 83 3 82 3 0 -176 0 -175 260 0 260 0 0 85 0 85 -85
0 -85 0 0 90 0 90 -85 0 -85 0 0 85 0 85 -90 0 -90 0 1 170 0 170 174 0 175 0
0 90 0 90 85 0 85 0 0 -90 0 -90 -85 0 -85 0 0 -85 0 -85 173 0 172 0 0 260 0
260 -257 0 -258 0 0 85 0 85 258 0 257 0 -3 167 c-2 128 0 168 10 174 7 5 123
7 258 6 l245 -2 0 -85z m3800 0 l0 -85 -65 -3 c-109 -5 -110 -5 -110 87 0 54
4 81 13 85 6 2 46 4 87 3 l75 -2 0 -85z m-1035 -345 l0 -255 -85 0 -84 0 -3
-87 -3 -88 -82 -3 -83 -3 0 176 0 176 85 -3 85 -3 0 173 0 172 85 0 85 0 0
-255z m860 170 l0 -85 90 0 c67 0 90 -3 89 -12 -1 -7 -1 -46 0 -85 l1 -73 255
0 255 0 0 -85 0 -85 -255 0 -255 0 0 85 0 85 -90 0 -90 0 0 -85 0 -85 -170 0
-170 0 0 -90 0 -90 430 0 430 0 0 -85 0 -85 175 0 175 0 0 -85 0 -85 -90 0
-90 0 0 -85 0 -85 -170 0 -170 0 0 170 0 170 -85 0 -85 0 0 -85 0 -85 -175 0
-175 0 0 -85 0 -85 -85 0 -85 0 0 85 0 85 85 0 85 0 0 85 0 85 -170 0 -170 0
0 -85 0 -85 -90 0 -90 0 0 -85 0 -85 -85 0 -85 0 0 -90 0 -90 85 0 85 0 0 78
c0 42 4 83 9 90 5 9 30 12 87 10 l79 -3 2 -172 3 -173 -90 0 -90 0 0 -170 0
-170 -170 0 -170 0 0 85 0 85 85 0 85 0 0 85 0 85 -170 0 -170 0 0 85 0 85
-74 0 c-41 0 -81 3 -90 6 -14 5 -16 -6 -16 -85 l0 -91 -85 0 -85 0 2 173 3
172 85 3 85 3 -3 169 -3 170 176 0 175 0 0 -85 0 -85 170 0 170 0 0 85 0 85
-85 0 -85 0 2 173 3 172 170 2 c94 1 209 2 258 3 l87 0 0 85 0 85 -175 0 -175
0 0 85 0 85 260 0 260 0 0 85 0 85 85 0 85 0 0 -85z m1560 0 l0 -86 -87 3 -88
3 -3 83 -3 82 91 0 90 0 0 -85z m-3110 -690 l0 -85 -85 0 -85 0 0 85 0 85 85
0 85 0 0 -85z m-3620 -170 l0 -85 85 0 85 0 0 -85 0 -85 -85 0 -85 0 0 85 0
85 -175 0 -175 0 0 85 0 85 175 0 175 0 0 -85z m2070 0 l0 -85 -87 0 -88 0 3
-85 3 -86 -88 3 -88 3 -3 168 -2 167 175 0 175 0 0 -85z m1378 -257 l-3 -173
-82 -3 -83 -3 0 176 0 175 85 0 85 0 -2 -172z m-3623 -88 l0 -85 -85 0 -85 0
-3 74 c-2 41 -1 80 2 88 4 11 25 13 88 11 l83 -3 0 -85z m5345 0 l0 -91 -82 3
-83 3 -3 74 c-2 41 -1 80 2 88 4 9 28 13 86 13 l80 0 0 -90z m1040 0 l0 -90
85 0 85 0 0 -85 0 -85 -85 0 -85 0 0 -85 0 -85 170 0 170 0 0 -85 0 -85 -85 0
-85 0 0 -175 0 -175 -85 0 -85 0 0 260 0 260 -85 0 -85 0 0 170 0 169 -87 3
-88 3 -3 74 c-2 41 -1 80 2 87 4 10 44 13 176 13 l170 1 0 -90z m-1210 -175
l0 -85 -85 0 -85 0 0 85 0 85 85 0 85 0 0 -85z m520 -85 l0 -170 -85 0 -85 0
0 170 0 170 85 0 85 0 0 -170z m-5691 -85 l2 -85 -90 0 -91 0 0 85 0 85 89 0
88 0 2 -85z m3101 0 l0 -85 -85 0 -85 0 0 85 0 85 85 0 85 0 0 -85z m1898
-257 l-3 -173 -82 -3 -83 -3 0 176 0 175 85 0 85 0 -2 -172z m517 150 c3 -13
6 -52 7 -88 2 -36 6 -64 11 -62 4 1 79 2 167 2 l160 0 0 85 0 85 85 0 85 0 0
-85 0 -84 88 -3 87 -3 0 -258 0 -257 88 0 87 0 0 -84 0 -85 85 -3 85 -3 0 88
0 87 173 -2 172 -3 3 -82 3 -83 -91 0 -90 0 0 -90 0 -90 -170 0 -170 0 0 90 0
90 -87 0 -88 0 0 -172 0 -173 -172 -3 -173 -2 0 84 0 85 -85 3 -85 3 0 -87 0
-88 -175 0 -175 0 0 -85 0 -85 175 0 175 0 -2 -172 -3 -173 -170 0 -170 0 0
88 0 87 -87 0 -88 0 0 170 0 170 -85 0 -85 0 0 -85 0 -85 -85 0 -85 0 0 169 0
170 -90 3 -90 3 0 -87 0 -88 -85 0 -85 0 2 173 3 172 83 0 82 0 0 88 0 88 88
-3 87 -3 3 -85 3 -85 169 3 170 3 0 -91 0 -90 88 0 87 0 -2 92 c-1 51 -2 130
-3 176 l0 82 -85 0 -85 0 0 85 0 85 -85 0 -85 0 0 85 0 85 85 0 85 0 0 175 0
175 170 0 c168 0 170 0 175 -22z m-5350 -238 l0 -85 -82 -3 -83 -3 0 91 0 91
83 -3 82 -3 0 -85z m6732 -88 l3 -173 -88 3 -87 3 -3 160 c-1 87 0 165 3 173
3 9 26 12 87 10 l83 -3 2 -173z m-2417 -87 l0 -85 -85 0 -85 0 0 85 0 85 85 0
85 0 0 -85z m-3450 -690 l0 -605 -602 2 -603 3 -3 603 -2 602 605 0 605 0 0
-605z m1727 348 l-2 -258 -85 0 -85 0 -2 258 -3 257 90 0 90 0 -3 -257z
m-1037 -173 l0 -90 85 0 85 0 0 -86 0 -85 -85 3 -85 3 0 -172 0 -173 -85 0
-85 0 0 85 0 85 -87 0 -88 0 0 -172 0 -173 -85 0 -85 0 -2 343 -3 342 90 0 90
0 0 90 0 90 170 0 170 0 0 -90z m690 0 l0 -90 85 0 85 0 0 -85 0 -85 -170 0
-170 0 0 -85 0 -85 -87 0 -88 0 3 -85 3 -84 82 -3 c45 -2 121 -2 170 0 l87 3
0 85 0 84 85 0 85 0 0 -85 0 -85 -85 0 -85 0 0 -90 0 -89 -345 0 -346 0 3 87
3 87 82 3 83 3 2 167 3 167 173 3 172 2 0 175 0 175 85 0 85 0 0 -90z m1035
-85 l0 -170 -87 -3 -88 -3 0 -169 0 -170 -85 0 -85 0 0 -90 0 -90 -85 0 -85 0
0 90 0 90 85 0 85 0 0 255 0 255 85 0 85 0 0 74 c0 109 -2 107 94 104 l81 -3
0 -170z m-515 -90 l0 -85 -85 0 -85 0 0 85 0 85 85 0 85 0 0 -85z m860 0 l0
-85 -85 0 -85 0 0 85 0 85 85 0 85 0 0 -85z m350 -170 l0 -85 -90 0 -90 0 0
85 0 85 90 0 90 0 0 -85z m2240 0 l0 -85 -85 0 -85 0 0 85 0 85 85 0 85 0 0
-85z m-2760 -170 l0 -85 85 0 c47 -1 164 -1 260 -1 96 0 252 0 345 1 l170 0 0
85 0 85 85 0 85 0 0 -85 0 -85 -85 0 -85 0 0 -90 0 -89 -515 0 -515 0 0 174 0
175 85 0 85 0 0 -85z m2410 0 l0 -85 -85 0 -85 0 0 85 0 85 85 0 85 0 0 -85z
m690 -90 l0 -176 -82 3 -83 3 -3 173 -2 172 85 0 85 0 0 -175z m-3965 -85 l0
-85 -85 0 -85 0 -3 74 c-2 41 -1 80 2 88 4 11 25 13 88 11 l83 -3 0 -85z
m2070 0 l0 -85 -85 0 -85 0 -3 74 c-2 41 -1 80 2 88 4 11 25 13 88 11 l83 -3
0 -85z m1553 2 l-3 -87 -170 0 -170 0 -3 74 c-2 41 -1 80 2 87 4 10 44 13 176
13 l171 1 -3 -88z"/>
<path d="M500 6940 l0 -430 430 0 430 0 0 430 0 430 -430 0 -430 0 0 -430z
m690 5 l0 -265 -265 0 -265 0 0 258 c0 142 3 262 7 265 3 4 123 7 265 7 l258
0 0 -265z"/>
<path d="M3080 6946 l0 -85 90 -3 90 -3 0 88 0 87 -90 0 -90 0 0 -84z"/>
<path d="M3343 6683 l-83 -4 0 -169 0 -169 85 -3 85 -3 0 178 c0 97 -1 176 -2
175 -2 -1 -40 -4 -85 -5z"/>
<path d="M3600 6250 l0 -260 175 0 175 0 0 90 0 90 85 0 85 0 0 170 0 170 -85
0 -85 0 -1 -87 c0 -49 0 -125 1 -170 l1 -83 -91 0 -91 0 3 170 3 170 -87 0
-88 0 0 -260z"/>
<path d="M4290 6080 l0 -90 84 0 85 0 3 90 3 90 -87 0 -88 0 0 -90z"/>
<path d="M3600 5735 l0 -85 -260 0 -260 0 0 -85 0 -84 88 -3 87 -3 3 -65 c2
-35 0 -75 -3 -88 -6 -23 -8 -24 -90 -20 l-85 3 0 -87 0 -88 90 0 90 0 0 85 0
85 85 0 85 0 0 -85 0 -85 85 0 85 0 2 173 3 172 83 3 82 3 0 79 c1 44 1 119 1
168 l1 87 -86 3 -86 3 0 -86z"/>
<path d="M2740 5565 l0 -85 85 0 85 0 0 85 0 85 -85 0 -85 0 0 -85z"/>
<path d="M2645 5303 l-80 -4 3 -84 3 -85 85 0 84 0 0 90 c0 50 -3 89 -7 88 -5
-1 -44 -4 -88 -5z"/>
<path d="M3080 4875 l0 -85 -85 0 -85 0 0 -90 0 -90 85 0 85 0 0 -85 c0 -82 1
-85 23 -85 13 0 36 14 53 31 16 17 46 42 67 55 29 19 37 31 37 54 0 29 1 30
50 30 27 0 65 8 85 17 l35 17 0 73 0 73 85 0 c78 0 85 -2 85 -20 0 -25 7 -25
45 1 17 11 51 31 77 44 l46 24 4 61 3 60 -347 0 -348 0 0 -85z"/>
<path d="M3078 4099 l-3 -174 -82 -3 -83 -3 0 -172 0 -172 84 3 85 3 6 87 c12
169 16 585 6 595 -7 7 -11 -46 -13 -164z"/>
<path d="M3258 3438 c-3 -22 -8 -23 -90 -26 l-88 -3 0 -89 0 -90 90 0 90 0 0
90 0 90 48 0 47 0 -40 25 c-50 30 -53 30 -57 3z"/>
<path d="M3430 3300 l0 -70 118 0 117 0 -30 18 c-16 10 -69 42 -117 70 l-88
51 0 -69z"/>
<path d="M3258 2971 c-2 -49 -2 -126 0 -172 l3 -84 169 3 170 3 0 84 0 85 -85
0 -85 0 0 85 0 85 -84 0 -85 0 -3 -89z"/>
<path d="M3770 1768 l0 -88 90 0 90 0 0 88 0 87 -90 0 -90 0 0 -87z"/>
<path d="M3600 1595 l0 -85 84 0 84 0 4 69 c5 106 9 101 -88 101 l-84 0 0 -85z"/>
<path d="M5328 7116 l-3 -85 88 -3 87 -3 0 88 0 87 -84 0 -85 0 -3 -84z"/>
<path d="M5150 6770 l0 -90 175 0 175 0 0 90 0 90 -175 0 -175 0 0 -90z"/>
<path d="M5413 6513 l-83 -4 0 -84 0 -84 85 -3 85 -3 0 93 c0 50 -1 91 -2 90
-2 -1 -40 -4 -85 -5z"/>
<path d="M5670 6340 l0 -175 85 3 85 3 0 -90 0 -91 90 0 90 0 0 90 0 90 -90 0
-90 0 0 169 0 170 -85 3 -85 3 0 -175z"/>
<path d="M5500 5735 l0 -85 85 0 85 0 0 -87 0 -88 257 0 258 0 3 -87 3 -88 84
0 85 0 0 90 0 90 -85 0 -85 0 0 85 0 85 170 0 170 0 0 -260 0 -260 90 0 90 0
0 175 0 175 170 -2 170 -3 0 88 0 87 -85 0 -85 0 0 85 0 85 -690 0 -690 0 0
-85z"/>
<path d="M5150 5218 l0 -88 90 0 90 0 0 88 0 87 -90 0 -90 0 0 -87z"/>
<path d="M6705 4878 l0 -83 85 -5 85 -5 3 -172 2 -173 -85 0 -85 0 0 84 0 85
-90 3 -90 3 0 -87 0 -88 90 0 90 0 0 -85 0 -85 170 0 170 0 0 345 0 345 -172
0 -173 0 0 -82z"/>
<path d="M6360 4183 l0 -88 84 3 85 3 3 85 3 84 -87 0 -88 0 0 -87z"/>
<path d="M7050 2975 l0 -85 84 0 85 0 3 85 3 85 -87 0 -88 0 0 -85z"/>
<path d="M6360 6940 l0 -430 430 0 430 0 0 430 0 430 -430 0 -430 0 0 -430z
m698 3 l2 -263 -265 0 -265 0 0 265 0 265 263 -2 262 -3 3 -262z"/>
<path d="M2220 6428 l0 -88 88 0 87 0 0 84 0 85 -88 3 -87 3 0 -87z"/>
<path d="M1010 5045 l0 -85 175 0 175 0 0 85 0 85 -175 0 -175 0 0 -85z"/>
<path d="M498 3495 l3 -84 82 -3 c45 -2 121 -2 170 0 l87 3 0 85 0 84 -172 0
-173 0 3 -85z"/>
<path d="M1360 2805 l0 -85 83 0 c45 -1 121 -2 170 -3 l87 -2 0 88 0 87 -170
0 -170 0 0 -85z"/>
<path d="M1360 2115 l0 -85 84 0 85 0 3 85 3 85 -87 0 -88 0 0 -85z"/>
<path d="M5670 3663 l0 -88 85 3 85 3 0 85 0 84 -85 0 -85 0 0 -87z"/>
<path d="M5150 3151 l0 -91 90 0 90 0 0 85 0 85 -74 0 c-41 0 -81 3 -90 6 -14
5 -16 -6 -16 -85z"/>
<path d="M4638 2806 l3 -85 85 -3 84 -3 0 88 0 87 -87 0 -88 0 3 -84z"/>
<path d="M6103 1852 l-83 -3 -1 -172 c-1 -201 1 -331 5 -334 4 -4 498 -4 502
0 5 5 6 498 1 503 -5 5 -324 10 -424 6z m257 -257 l0 -85 -85 0 -85 0 0 85 0
85 85 0 85 0 0 -85z"/>
<path d="M500 1080 l0 -430 430 0 430 0 0 430 0 430 -430 0 -430 0 0 -430z
m690 -5 l0 -265 -262 2 -263 3 -3 263 -2 262 265 0 265 0 0 -265z"/>
</g>
</svg>
